# xmcd CD database file
# Copyright (C) 1993-1998 Ti Kan
#
# Track frame offsets:
#	225
#	13217
#	24741
#	38196
#	52045
#	64752
#	83449
#	100614
#	113872
#	124799
#	135651
#	156350
#	171245
#	188712
#	203067
#
# Disc length: 2987 seconds
#
# Revision: 2
# Processed by: cddbd v1.4b41PL1 Copyright (c) Steve Scherf et al.
# Submitted via: NotifyCDPlayer(CDDB) 1.51.3
#
DISCID=c90ba80f
DTITLE=Kirk James - The Way It Goes
DYEAR=1900
DGENRE=
TTITLE0=Wind Up Toy
TTITLE1=To See You Smile
TTITLE2=Old Dog Blues
TTITLE3=From Four Til Late
TTITLE4=Game Called Love
TTITLE5=Pony Blues
TTITLE6=Southwestern Pilgrimage
TTITLE7=The Way It Goes
TTITLE8=Barletta Street
TTITLE9=Ain't Ya Sorry
TTITLE10=Time In Dallas
TTITLE11=Dime Store Hero
TTITLE12=Pallet On The Floor
TTITLE13=Favorite Fool
TTITLE14=Back To The Country
EXTD=
EXTT0=
EXTT1=
EXTT2=
EXTT3=
EXTT4=
EXTT5=
EXTT6=
EXTT7=
EXTT8=
EXTT9=
EXTT10=
EXTT11=
EXTT12=
EXTT13=
EXTT14=
PLAYORDER=
